<svg width="596" height="130" viewBox="0 0 596 130" fill="none" xmlns="http://www.w3.org/2000/svg">
<path d="M596 130H0V0H596V130ZM141.354 9C136.614 9 132.23 10.6484 128.697 13.916C125.247 17.108 123.212 21.3162 123.088 26.124L123.082 26.5908C123.082 28.3116 123.325 29.9584 123.789 31.5127C123.625 31.5514 123.462 31.5939 123.299 31.6367H89V102H247.261L245.374 108.162L242.918 116.185L250.749 119.196C252.896 120.022 255.198 120.597 257.58 120.99V120.991C257.614 120.997 257.647 121.002 257.681 121.008V121.007C260.156 121.432 262.698 121.637 265.297 121.637C270.536 121.637 275.568 120.844 280.018 118.81C284.109 116.938 287.654 114.265 290.419 110.724L290.42 110.725C290.432 110.71 290.442 110.694 290.454 110.679C290.462 110.668 290.472 110.658 290.48 110.647L290.479 110.646C292.937 107.525 294.792 104.033 296.054 100.233L296.055 100.234L298.288 93.5977V102H335.105V95.4434C336.62 96.6548 338.26 97.7354 340.02 98.6797L340.046 98.6943L340.072 98.708C345.67 101.664 351.996 102.954 358.729 102.954C364.451 102.954 369.865 102.096 374.772 100.121L374.786 100.116L374.8 100.11C374.898 100.07 374.995 100.027 375.093 99.9863V102H411.525C413.569 102.469 415.664 102.682 417.774 102.682L418.279 102.678C423.486 102.59 428.395 101.151 432.821 98.373L432.82 98.3711C436.745 95.9189 439.818 92.5591 442.148 88.5938C443.995 91.5418 446.448 94.135 449.458 96.3242L449.467 96.3311L449.476 96.3369C456.07 101.108 464.433 102.954 473.536 102.954C479.286 102.954 484.738 102.077 489.738 100.119L489.752 100.113L489.765 100.108C494.768 98.1311 499.13 95.166 502.444 91.0254L502.445 91.0264C505.994 86.5991 507.729 81.3659 507.764 75.7363V75.6289C507.745 72.4716 507.143 69.4455 505.912 66.6816H506.777L506.393 57.3135C506.056 49.0964 502.44 42.1546 495.731 37.3506H495.732C489.328 32.7473 481.29 30.9541 472.582 30.9541C469.297 30.9541 466.124 31.2067 463.1 31.7568C463.102 31.6258 463.105 31.4946 463.105 31.3633V14.1816H432.015V31.3633C432.015 32.7116 431.921 33.7942 431.787 34.6514C427.506 32.238 422.841 30.9542 417.911 30.9541C415.889 30.9541 413.876 31.1526 411.911 31.5957V14.1816H375.093V34.6201C374.18 34.1711 373.242 33.7605 372.278 33.3916C367.904 31.7162 363.212 30.9542 358.321 30.9541C353.617 30.9541 349.111 31.6481 344.914 33.1582L346.928 23.1904L348.63 14.7627L340.288 12.6777C338.807 12.3075 336.815 11.9416 334.495 11.5703L334.496 11.5693C331.748 11.1253 328.949 10.9092 326.105 10.9092C321.183 10.9093 316.432 11.8201 312.127 13.9727H312.126C307.616 16.2277 304.1 19.6837 301.699 24.0967C300.415 26.4575 299.547 28.9944 299.006 31.6367H279.726L278.085 38.5625L278.046 38.7227L278.017 38.5938L276.396 31.6367H256.082L254.486 26.8975L250.808 31.6367H229.716V14.1816H192.897V31.6367H158.882C159.37 30.0463 159.627 28.3578 159.627 26.5908L159.621 26.123C159.497 21.3324 157.475 17.1405 154.051 13.9551L154.052 13.9541C154.044 13.9467 154.035 13.94 154.027 13.9326C154.022 13.9273 154.016 13.9213 154.011 13.916L154.01 13.917C150.585 10.7281 146.354 9.10356 141.798 9.00488L141.354 9ZM326.105 19.9092C328.492 19.9092 330.811 20.0905 333.061 20.4541C335.333 20.8177 337.015 21.1365 338.105 21.4092L335.379 34.9092C334.697 34.7046 333.901 34.5453 332.992 34.4316C332.083 34.2953 331.287 34.2275 330.605 34.2275C328.833 34.2276 327.64 34.6026 327.026 35.3525C326.413 36.1025 326.105 37.0912 326.105 38.3184V40.6367H335.651V51.6465C337.78 48.1394 340.642 45.3655 344.241 43.3291C348.218 41.0792 352.912 39.9541 358.321 39.9541C362.276 39.9541 365.855 40.5687 369.06 41.7959C372.264 43.0231 375.003 44.8067 377.275 47.1475C379.548 49.4656 381.298 52.2844 382.525 55.6025C383.28 57.6439 383.802 59.8445 384.093 62.2041V23.1816H402.911V49.7725H403.184C403.865 47.9998 404.865 46.3747 406.184 44.8975C407.502 43.3976 409.138 42.2047 411.093 41.3184C413.047 40.4093 415.32 39.9541 417.911 39.9541C421.365 39.9542 424.649 40.8751 427.763 42.7158C430.899 44.5567 433.445 47.4546 435.399 51.4092C437.377 55.3637 438.365 60.5002 438.365 66.8184C438.365 72.8637 437.422 77.8753 435.536 81.8525C433.673 85.8297 431.172 88.7955 428.036 90.75C424.923 92.7045 421.502 93.6816 417.774 93.6816C415.32 93.6816 413.126 93.2837 411.194 92.4883C409.286 91.6701 407.65 90.5678 406.286 89.1816C404.945 87.7726 403.911 86.1819 403.184 84.4092H402.774V93H384.093V77.4893C383.396 80.543 382.09 83.2364 380.173 85.5684C377.968 88.2272 375.048 90.2952 371.412 91.7725C367.798 93.227 363.57 93.9541 358.729 93.9541C353.139 93.954 348.321 92.8863 344.275 90.75C340.253 88.591 337.151 85.5001 334.969 81.4775C332.81 77.4321 331.729 72.5905 331.729 66.9541C331.73 62.2001 332.573 57.9731 334.259 54.2725H326.105V93H307.288V54.2725H302.026L287.524 97.3633C286.57 100.25 285.183 102.841 283.365 105.137C281.57 107.455 279.206 109.284 276.274 110.625C273.343 111.966 269.683 112.637 265.297 112.637C263.138 112.637 261.081 112.466 259.127 112.125C257.173 111.807 255.457 111.364 253.979 110.796L258.07 97.4316C259.616 97.977 261.024 98.3292 262.297 98.4883C263.592 98.6474 264.695 98.5567 265.604 98.2158C266.536 97.8749 267.206 97.2269 267.615 96.2725L268.024 95.3184L251.31 45.6689L237.405 63.584L255.762 93H234.216L223.534 74.5498L220.716 78.1514V93H201.897V23.1816H220.716V58.2275H221.397L234.079 40.6367H269.252L277.706 76.9092H278.252L286.843 40.6367H307.288V39.1367C307.288 34.8185 308.06 31.2384 309.605 28.3975C311.151 25.5566 313.333 23.4316 316.151 22.0225C318.969 20.6135 322.288 19.9092 326.105 19.9092ZM472.582 39.9541C480.15 39.9541 486.116 41.5229 490.479 44.6592C494.866 47.7955 497.173 52.1363 497.4 57.6816H480.082C479.991 56.6137 479.616 55.6935 478.957 54.9209C478.298 54.1482 477.446 53.5565 476.4 53.1475C475.378 52.7157 474.241 52.5 472.991 52.5C471.378 52.5 469.991 52.7958 468.832 53.3867C467.673 53.9776 467.104 54.8183 467.127 55.9092C467.104 56.6819 467.434 57.3976 468.116 58.0566C468.821 58.7157 470.173 59.2272 472.173 59.5908L482.81 61.5C488.173 62.4773 492.162 64.1252 494.775 66.4434C497.412 68.7388 498.741 71.8182 498.764 75.6816C498.741 79.4088 497.627 82.6475 495.423 85.3975C493.241 88.1247 490.252 90.2383 486.457 91.7383C482.684 93.2156 478.377 93.9541 473.536 93.9541C465.536 93.954 459.275 92.3186 454.752 89.0459C450.252 85.7732 447.741 81.4544 447.219 76.0908H465.9C466.15 77.7499 466.968 79.0343 468.354 79.9434C469.764 80.8297 471.537 81.2725 473.673 81.2725C475.4 81.2725 476.821 80.9776 477.935 80.3867C479.071 79.7958 479.65 78.9542 479.673 77.8633C479.65 76.8635 479.15 76.0684 478.173 75.4775C477.218 74.8866 475.718 74.4095 473.673 74.0459L464.4 72.4092C459.06 71.4774 455.059 69.7044 452.4 67.0908C449.741 64.4772 448.423 61.1136 448.445 57C448.423 53.3637 449.378 50.2844 451.31 47.7617C453.264 45.2163 456.048 43.284 459.661 41.9658C463.297 40.6249 467.605 39.9541 472.582 39.9541ZM128.682 39.9541C129.5 39.9541 130.307 40.0228 131.103 40.1592C131.877 40.2668 132.621 40.4273 133.334 40.6367H150.764V93H131.945V56.3203C131.358 56.1963 130.713 56.0936 130.012 56.0117C128.648 55.8526 127.477 55.7725 126.5 55.7725C124.659 55.7725 123.001 56.1934 121.523 57.0342C120.069 57.8524 118.921 59.0117 118.08 60.5117C117.239 61.989 116.818 63.7276 116.818 65.7275V93H98V40.6367H116.273V50.5908H116.818C117.773 46.9091 119.284 44.2163 121.353 42.5117C123.443 40.8073 125.886 39.9542 128.682 39.9541ZM198.354 40.6367V52.0908L177.489 78.4092V78.6816H199.172V93H153.217V82.6367L176.126 55.2275V54.9541H154.035V40.6367H198.354ZM350.275 71.1816V72C350.275 73.6818 350.628 75.1818 351.332 76.5C352.037 77.8182 353.048 78.8525 354.366 79.6025C355.684 80.3525 357.275 80.7275 359.139 80.7275C360.434 80.7275 361.616 80.5453 362.685 80.1816C363.775 79.818 364.707 79.295 365.479 78.6133C366.252 77.9087 366.821 77.0681 367.185 76.0908H384.093V71.1816H350.275ZM410.819 54.4092C409.092 54.4093 407.603 54.9093 406.354 55.9092C405.126 56.8864 404.172 58.3074 403.49 60.1709C402.831 62.0117 402.502 64.2276 402.502 66.8184C402.502 69.3637 402.831 71.5681 403.49 73.4316C404.172 75.2725 405.126 76.7048 406.354 77.7275C407.603 78.7274 409.092 79.2274 410.819 79.2275C412.547 79.2275 414.013 78.739 415.218 77.7617C416.445 76.7617 417.376 75.3409 418.013 73.5C418.672 71.6364 419.002 69.4092 419.002 66.8184C419.002 64.2276 418.672 62.0117 418.013 60.1709C417.376 58.3074 416.445 56.8864 415.218 55.9092C414.013 54.9092 412.547 54.4092 410.819 54.4092ZM358.729 53.1816C357.207 53.1817 355.81 53.5119 354.537 54.1709C353.265 54.8072 352.241 55.6929 351.469 56.8291C350.719 57.9655 350.321 59.2956 350.275 60.8184H367.048C367.025 59.3184 366.639 57.9996 365.889 56.8633C365.161 55.7044 364.173 54.8072 362.923 54.1709C361.696 53.5118 360.298 53.1816 358.729 53.1816ZM454.105 23.1816V31.3633C454.105 33.5906 453.651 35.8186 452.742 38.0459C451.856 40.2503 450.719 42.3068 449.333 44.2158C447.969 46.1022 446.56 47.6814 445.105 48.9541L437.333 45C438.288 43.3636 439.14 41.4657 439.89 39.3066C440.64 37.1476 441.015 34.4996 441.015 31.3633V23.1816H454.105ZM141.354 18C143.922 18 146.104 18.8409 147.899 20.5225C149.718 22.2043 150.627 24.2272 150.627 26.5908C150.627 28.9545 149.718 30.9774 147.899 32.6592C146.104 34.3408 143.922 35.1816 141.354 35.1816C138.809 35.1816 136.627 34.341 134.809 32.6592C132.99 30.9774 132.082 28.9544 132.082 26.5908C132.082 24.2272 132.99 22.2043 134.809 20.5225C136.627 18.8406 138.809 18 141.354 18Z" fill="#0B0B0D"/>
</svg>
