<svg width="596" height="112" viewBox="0 0 596 112" fill="none" xmlns="http://www.w3.org/2000/svg">
<path d="M596 112H0V0H596V112ZM325.49 36.3711C320.646 36.3711 316.454 37.0231 312.915 38.3281C309.398 39.6111 306.688 41.4913 304.785 43.9688C302.905 46.4241 301.976 49.4218 301.998 52.9609C301.976 56.9647 303.26 60.2384 305.848 62.7822C308.436 65.3261 312.329 67.052 317.527 67.959L326.552 69.5518C328.543 69.9057 330.003 70.3702 330.932 70.9453C331.883 71.5204 332.369 72.2944 332.392 73.2676C332.369 74.3294 331.805 75.1475 330.699 75.7227C329.615 76.2977 328.233 76.5859 326.552 76.5859C324.473 76.5859 322.747 76.1546 321.376 75.292C320.027 74.4072 319.231 73.1568 318.987 71.542H300.804C301.312 76.7624 303.757 80.966 308.137 84.1514C312.539 87.3366 318.633 88.9287 326.419 88.9287C331.131 88.9287 335.323 88.2103 338.995 86.7725C342.689 85.3125 345.598 83.255 347.722 80.6006C349.867 77.9241 350.95 74.7721 350.973 71.1445C350.951 67.3841 349.657 64.3865 347.091 62.1523C344.547 59.8961 340.665 58.292 335.444 57.3408L325.092 55.4824C323.146 55.1285 321.829 54.6316 321.144 53.9902C320.48 53.3487 320.16 52.6515 320.182 51.8994C320.16 50.8376 320.713 50.0195 321.841 49.4443C322.969 48.8693 324.318 48.5811 325.889 48.5811C327.105 48.5811 328.212 48.7916 329.207 49.2119C330.224 49.6101 331.054 50.1855 331.695 50.9375C332.337 51.6895 332.702 52.5855 332.79 53.625H349.646C349.424 48.2277 347.179 44.0028 342.91 40.9502C338.663 37.8976 332.856 36.3711 325.49 36.3711ZM466.074 36.3711C460.81 36.3711 456.241 37.4653 452.37 39.6553C448.499 41.8452 445.501 44.9092 443.378 48.8467C441.905 51.5775 440.944 54.6279 440.493 57.9971V53.625C440.493 48.4046 438.967 44.2231 435.914 41.082C432.884 37.941 428.924 36.3711 424.035 36.3711C420.253 36.3711 416.957 37.3223 414.147 39.2246C411.338 41.1048 409.502 43.6046 408.64 46.7236H408.108C407.578 43.6047 406.018 41.1048 403.43 39.2246C400.842 37.3223 397.756 36.3712 394.173 36.3711C390.634 36.3711 387.581 37.3001 385.015 39.1582C382.449 41.0163 380.635 43.5383 379.573 46.7236H379.042V37.0342H361.655V88H379.971V58.2705C379.971 56.7884 380.215 55.5159 380.701 54.4541C381.21 53.3704 381.917 52.5409 382.824 51.9658C383.731 51.3907 384.815 51.1035 386.076 51.1035C387.978 51.1035 389.494 51.7444 390.622 53.0273C391.75 54.2882 392.314 56.0363 392.314 58.2705V88H409.834V58.2705C409.834 56.0363 410.376 54.2882 411.46 53.0273C412.566 51.7447 414.059 51.1036 415.938 51.1035C417.841 51.1035 419.356 51.7445 420.484 53.0273C421.613 54.2882 422.177 56.0363 422.177 58.2705V88H440.493V67.499C440.941 70.965 441.892 74.0606 443.346 76.7852C445.469 80.7003 448.488 83.7092 452.403 85.8105C456.341 87.8899 461.031 88.9287 466.473 88.9287C471.184 88.9287 475.298 88.2213 478.815 86.8057C482.355 85.3678 485.197 83.3547 487.343 80.7666C489.488 78.1564 490.849 75.0813 491.424 71.542H474.701C474.347 72.4932 473.794 73.3123 473.042 73.998C472.29 74.6616 471.383 75.1705 470.321 75.5244C469.282 75.8783 468.131 76.0547 466.87 76.0547C465.056 76.0547 463.508 75.6899 462.225 74.96C460.942 74.23 459.958 73.2232 459.272 71.9404C458.587 70.6574 458.243 69.1975 458.243 67.5605V66.7646H491.424V62.5176C491.424 58.4695 490.827 54.8302 489.633 51.6006C488.438 48.371 486.734 45.6284 484.522 43.3721C482.31 41.0937 479.645 39.3566 476.526 38.1621C473.407 36.9676 469.923 36.3711 466.074 36.3711ZM100.521 20.0459V34.9111H120.961V88H139.145V34.9111H159.317V88H177.633V59.332C177.655 57.651 177.964 56.213 178.562 55.0186C179.181 53.8021 180.044 52.8729 181.149 52.2314C182.278 51.5678 183.583 51.2354 185.065 51.2354C187.41 51.2354 189.213 51.9548 190.474 53.3926C191.757 54.8304 192.387 56.8103 192.365 59.332V88H210.681V79.5518C211.014 80.5508 211.447 81.4648 211.982 82.293C213.398 84.4828 215.345 86.1202 217.822 87.2041C220.322 88.2657 223.198 88.7959 226.449 88.7959C228.661 88.7959 230.685 88.5308 232.521 88C234.379 87.4691 236.027 86.6176 237.465 85.4453C238.925 84.273 240.163 82.7353 241.181 80.833H241.579V88H258.7V53.0938C258.7 52.1356 258.61 51.2068 258.433 50.3066H263.295V73.334C263.251 76.8954 263.948 79.8597 265.386 82.2266C266.824 84.5933 268.969 86.3295 271.822 87.4355C274.676 88.5195 278.204 88.9507 282.407 88.7295C284.486 88.6189 286.278 88.3871 287.782 88.0332C289.309 87.6793 290.481 87.381 291.3 87.1377L288.646 74.2627C288.292 74.3512 287.738 74.462 286.986 74.5947C286.256 74.7274 285.615 74.7939 285.062 74.7939C284.265 74.7939 283.612 74.6831 283.104 74.4619C282.595 74.2186 282.219 73.8648 281.976 73.4004C281.732 72.9138 281.61 72.3162 281.61 71.6084V50.3066H290.37V37.0342H281.61V24.8242H263.295V37.0342H256.792V46.0107C255.745 44.1902 254.292 42.591 252.43 41.2148C250.395 39.6886 247.928 38.5056 245.03 37.665C242.133 36.8024 238.859 36.3711 235.209 36.3711C230.143 36.3711 225.918 37.1671 222.533 38.7598C219.149 40.3303 216.572 42.4322 214.803 45.0645C213.055 47.6747 212.071 50.5282 211.85 53.625H228.705C228.926 52.0544 229.579 50.8927 230.663 50.1406C231.769 49.3665 233.196 48.9795 234.943 48.9795C236.536 48.9795 237.841 49.3333 238.858 50.041C239.876 50.7488 240.385 51.7666 240.385 53.0938V53.2266C240.385 54.1997 239.998 54.9848 239.224 55.582C238.449 56.1572 237.188 56.6106 235.44 56.9424C233.715 57.252 231.426 57.5181 228.572 57.7393C225.94 57.9383 223.484 58.3696 221.206 59.0332C218.95 59.6968 216.97 60.6591 215.267 61.9199C213.563 63.1808 212.236 64.8071 211.285 66.7979C211.056 67.2727 210.855 67.7715 210.681 68.2939V55.4824C210.703 51.7664 209.973 48.4703 208.491 45.5947C207.031 42.7191 204.963 40.4631 202.286 38.8262C199.632 37.1893 196.501 36.3711 192.896 36.3711C189.135 36.3712 185.917 37.2891 183.24 39.125C180.564 40.9389 178.65 43.472 177.5 46.7236H176.969V20.0459H100.521ZM240.518 69.9492C240.518 71.4977 240.131 72.8145 239.356 73.8984C238.582 74.9823 237.576 75.8116 236.337 76.3867C235.12 76.9618 233.815 77.249 232.422 77.249C230.873 77.249 229.601 76.8732 228.605 76.1211C227.61 75.369 227.112 74.2848 227.112 72.8691C227.112 71.9845 227.323 71.1882 227.743 70.4805C228.186 69.7506 228.849 69.1419 229.733 68.6553C230.64 68.1465 231.802 67.7818 233.218 67.5605C233.948 67.4499 234.645 67.328 235.309 67.1953C235.994 67.0626 236.635 66.9194 237.232 66.7646C237.852 66.6098 238.427 66.4436 238.958 66.2666C239.511 66.0896 240.031 65.9012 240.518 65.7021V69.9492ZM466.473 49.2451C467.999 49.2452 469.359 49.5656 470.554 50.207C471.77 50.8264 472.733 51.7001 473.44 52.8281C474.17 53.9341 474.546 55.2178 474.568 56.6777H458.243C458.287 55.1957 458.674 53.9009 459.404 52.7949C460.156 51.689 461.152 50.8264 462.391 50.207C463.629 49.5655 464.991 49.2451 466.473 49.2451ZM294.766 20.0459V28.0088C294.766 31.0614 294.401 33.6388 293.671 35.7402C292.941 37.8416 292.112 39.6886 291.183 41.2812L298.748 45.1309C300.164 43.8921 301.535 42.3545 302.862 40.5186C304.212 38.6605 305.317 36.6583 306.18 34.5127C307.065 32.3449 307.508 30.1766 307.508 28.0088V20.0459H294.766Z" fill="#0C0C0E"/>
</svg>
